<svg version="1.1" id="Layer_1" xmlns="http://www.w3.org/2000/svg" xmlns:xlink="http://www.w3.org/1999/xlink" x="0px" y="0px"
	 width="100%" viewBox="0 0 522 130" enable-background="new 0 0 522 130" xml:space="preserve">
<path fill="none" opacity="1.000000" stroke="#000000" stroke-linecap="round" stroke-linejoin="round" stroke-width="2.000000"
	d="
M28.000000,120.500000 
	C28.490097,113.445930 23.417091,101.890755 18.500000,99.785973 
	C18.500000,105.489929 18.580853,110.997017 18.441219,116.498505 
	C18.407734,117.817871 19.469110,119.575607 17.500000,120.500000 
"/>
<path fill="none" opacity="1.000000" stroke="#000000" stroke-linecap="round" stroke-linejoin="round" stroke-width="3.000000"
	d="
M249.500000,30.000000 
	C252.180420,29.573359 255.197327,30.941267 258.120026,27.843472 
	C251.965378,25.921875 246.270218,26.072908 240.500000,27.500000 
"/>
<path fill="none" opacity="1.000000" stroke="#000000" stroke-linecap="round" stroke-linejoin="round" stroke-width="6.000000"
	d="
M180.500000,99.500000 
	C171.829910,103.238014 170.780930,114.252380 178.500000,120.500000 
"/>
<path fill="none" opacity="1.000000" stroke="#000000" stroke-linecap="round" stroke-linejoin="round" stroke-width="5.000000"
	d="
M302.500000,74.500000 
	C311.462372,78.870964 318.242645,85.424011 322.500000,94.500000 
"/>
<path fill="none" opacity="1.000000" stroke="#000000" stroke-linecap="round" stroke-linejoin="round" stroke-width="6.000000"
	d="
M108.500000,100.500000 
	C102.272369,106.528633 102.272369,114.471367 108.500000,120.500000 
"/>
<path fill="none" opacity="1.000000" stroke="#000000" stroke-linecap="round" stroke-linejoin="round" stroke-width="5.000000"
	d="
M257.500000,121.500000 
	C253.665375,112.643967 246.942596,106.263489 239.500000,100.500000 
"/>
<path fill="none" opacity="1.000000" stroke="#000000" stroke-linecap="round" stroke-linejoin="round" stroke-width="6.000000"
	d="
M207.500000,75.500000 
	C201.651535,82.685394 201.958191,88.205231 208.500000,93.500000 
"/>
<path fill="none" opacity="1.000000" stroke="#000000" stroke-linecap="round" stroke-linejoin="round" stroke-width="6.000000"
	d="
M344.500000,75.500000 
	C350.519409,80.371956 350.519409,87.134590 344.500000,93.500000 
"/>
<path fill="none" opacity="1.000000" stroke="#000000" stroke-linecap="round" stroke-linejoin="round" stroke-width="6.000000"
	d="
M152.500000,75.500000 
	C146.477264,80.374641 146.477264,86.903320 152.500000,93.500000 
"/>
<path fill="none" opacity="1.000000" stroke="#000000" stroke-linecap="round" stroke-linejoin="round" stroke-width="5.000000"
	d="
M451.000000,102.000000 
	C457.442993,107.079185 464.321014,111.735786 468.000000,119.500000 
"/>
<path fill="none" opacity="1.000000" stroke="#000000" stroke-linecap="round" stroke-linejoin="round" stroke-width="5.000000"
	d="
M433.500000,100.500000 
	C432.935883,107.626785 436.151367,113.283722 440.500000,118.500000 
"/>
<path fill="none" opacity="1.000000" stroke="#000000" stroke-linecap="round" stroke-linejoin="round" stroke-width="3.000000"
	d="
M335.000000,76.000000 
	C330.506012,82.896736 330.907990,87.586563 336.500000,93.500000 
"/>
<path fill="none" opacity="1.000000" stroke="#000000" stroke-linecap="round" stroke-linejoin="round" stroke-width="6.000000"
	d="
M40.500000,101.500000 
	C40.500000,107.166664 40.500000,112.833336 40.500000,118.500000 
"/>
<path fill="none" opacity="1.000000" stroke="#000000" stroke-linecap="round" stroke-linejoin="round" stroke-width="6.000000"
	d="
M161.500000,101.500000 
	C161.500000,107.166664 161.500000,112.833336 161.500000,118.500000 
"/>
<path fill="none" opacity="1.000000" stroke="#000000" stroke-linecap="round" stroke-linejoin="round" stroke-width="6.000000"
	d="
M269.500000,101.500000 
	C269.500000,107.166664 269.500000,112.833336 269.500000,118.500000 
"/>
<path fill="none" opacity="1.000000" stroke="#000000" stroke-linecap="round" stroke-linejoin="round" stroke-width="5.000000"
	d="
M59.500000,99.500000 
	C60.096363,107.260857 61.873703,114.532738 68.009186,119.989670 
	C68.102249,120.072426 68.333336,120.000000 68.500000,120.000000 
"/>
<path fill="none" opacity="1.000000" stroke="#000000" stroke-linecap="round" stroke-linejoin="round" stroke-width="3.000000"
	d="
M107.500000,84.500000 
	C110.609283,84.275948 112.411278,82.465675 112.429237,79.499573 
	C112.451889,75.759483 109.345352,75.152245 106.500000,74.500000 
"/>
<path fill="none" opacity="1.000000" stroke="#000000" stroke-linecap="round" stroke-linejoin="round" stroke-width="7.000000"
	d="
M203.000000,102.000000 
	C203.000000,107.333336 203.000000,112.666664 203.000000,118.000000 
"/>
<path fill="none" opacity="1.000000" stroke="#000000" stroke-linecap="round" stroke-linejoin="round" stroke-width="2.000000"
	d="
M305.000000,77.500000 
	C303.839935,82.634621 304.815094,87.838120 304.500000,93.000000 
"/>
<path fill="none" opacity="1.000000" stroke="#000000" stroke-linecap="round" stroke-linejoin="round" stroke-width="2.000000"
	d="
M450.000000,103.500000 
	C448.839935,108.634621 449.815094,113.838120 449.500000,119.000000 
"/>
<path fill="none" opacity="1.000000" stroke="#000000" stroke-linecap="round" stroke-linejoin="round" stroke-width="2.000000"
	d="
M85.500000,109.500000 
	C89.862793,110.105835 92.758110,112.227592 92.447990,116.996620 
	C92.244545,120.125298 94.291359,120.778046 96.500000,121.500000 
"/>
<path fill="none" opacity="1.000000" stroke="#000000" stroke-linecap="round" stroke-linejoin="round" stroke-width="6.000000"
	d="
M74.500000,76.500000 
	C74.500000,81.500000 74.500000,86.500000 74.500000,91.500000 
"/>
<path fill="none" opacity="1.000000" stroke="#000000" stroke-linecap="round" stroke-linejoin="round" stroke-width="2.000000"
	d="
M88.000008,109.500008 
	C88.333336,109.166672 88.609344,108.717552 89.009605,108.519394 
	C91.110191,107.479385 93.411758,106.259544 92.399414,103.537407 
	C91.493698,101.101982 89.577660,99.216850 86.500000,99.500000 
"/>
<path fill="none" opacity="1.000000" stroke="#000000" stroke-linecap="round" stroke-linejoin="round" stroke-width="6.000000"
	d="
M238.500000,76.500000 
	C238.500000,81.500000 238.500000,86.500000 238.500000,91.500000 
"/>
<path fill="none" opacity="1.000000" stroke="#000000" stroke-linecap="round" stroke-linejoin="round" stroke-width="6.000000"
	d="
M263.500000,76.500000 
	C263.500000,81.500000 263.500000,86.500000 263.500000,91.500000 
"/>
<path fill="none" opacity="1.000000" stroke="#000000" stroke-linecap="round" stroke-linejoin="round" stroke-width="6.000000"
	d="
M282.500000,76.500000 
	C282.500000,81.500000 282.500000,86.500000 282.500000,91.500000 
"/>
<path fill="none" opacity="1.000000" stroke="#000000" stroke-linecap="round" stroke-linejoin="round" stroke-width="6.000000"
	d="
M424.500000,76.500000 
	C424.500000,81.500000 424.500000,86.500000 424.500000,91.500000 
"/>
<path fill="none" opacity="1.000000" stroke="#000000" stroke-linecap="round" stroke-linejoin="round" stroke-width="6.000000"
	d="
M328.500000,102.500000 
	C328.500000,107.500000 328.500000,112.500000 328.500000,117.500000 
"/>
<path fill="none" opacity="1.000000" stroke="#000000" stroke-linecap="round" stroke-linejoin="round" stroke-width="6.000000"
	d="
M400.500000,76.500000 
	C400.500000,81.500000 400.500000,86.500000 400.500000,91.500000 
"/>
<path fill="none" opacity="1.000000" stroke="#000000" stroke-linecap="round" stroke-linejoin="round" stroke-width="6.000000"
	d="
M386.500000,76.500000 
	C386.500000,81.500000 386.500000,86.500000 386.500000,91.500000 
"/>
<path fill="none" opacity="1.000000" stroke="#000000" stroke-linecap="round" stroke-linejoin="round" stroke-width="6.000000"
	d="
M479.500000,102.500000 
	C479.500000,107.500000 479.500000,112.500000 479.500000,117.500000 
"/>
<path fill="none" opacity="1.000000" stroke="#000000" stroke-linecap="round" stroke-linejoin="round" stroke-width="6.000000"
	d="
M414.500000,102.500000 
	C414.500000,107.500000 414.500000,112.500000 414.500000,117.500000 
"/>
<path fill="none" opacity="1.000000" stroke="#000000" stroke-linecap="round" stroke-linejoin="round" stroke-width="5.000000"
	d="
M222.500000,99.500000 
	C221.308563,102.434822 222.112793,105.133347 223.503220,107.748291 
	C225.568283,111.631989 225.635162,116.535591 229.500000,119.500000 
"/>
<path fill="none" opacity="1.000000" stroke="#000000" stroke-linecap="round" stroke-linejoin="round" stroke-width="6.000000"
	d="
M162.000000,76.000000 
	C165.544434,80.518394 165.989670,85.357391 163.500000,90.500000 
"/>
<path fill="none" opacity="1.000000" stroke="#000000" stroke-linecap="round" stroke-linejoin="round" stroke-width="7.000000"
	d="
M177.000000,77.000000 
	C177.000000,81.666664 177.000000,86.333336 177.000000,91.000000 
"/>
<path fill="none" opacity="1.000000" stroke="#000000" stroke-linecap="round" stroke-linejoin="round" stroke-width="7.000000"
	d="
M293.000000,103.000000 
	C293.000000,107.666664 293.000000,112.333336 293.000000,117.000000 
"/>
<path fill="none" opacity="1.000000" stroke="#000000" stroke-linecap="round" stroke-linejoin="round" stroke-width="7.000000"
	d="
M348.000000,103.000000 
	C348.000000,107.666664 348.000000,112.333336 348.000000,117.000000 
"/>
<path fill="none" opacity="1.000000" stroke="#000000" stroke-linecap="round" stroke-linejoin="round" stroke-width="7.000000"
	d="
M390.000000,103.000000 
	C390.000000,107.666664 390.000000,112.333336 390.000000,117.000000 
"/>
<path fill="none" opacity="1.000000" stroke="#000000" stroke-linecap="round" stroke-linejoin="round" stroke-width="2.000000"
	d="
M466.500000,100.500000 
	C467.557739,100.478569 468.678864,100.198891 468.524658,102.002106 
	C468.169312,106.157684 469.088501,110.370209 468.000000,114.500000 
"/>
<path fill="none" opacity="1.000000" stroke="#000000" stroke-linecap="round" stroke-linejoin="round" stroke-width="6.000000"
	d="
M188.500000,75.500000 
	C192.982788,77.886612 194.477280,81.597458 193.516510,86.503235 
	C192.741501,90.460411 190.473145,92.806473 186.500000,93.500000 
"/>
<path fill="none" opacity="1.000000" stroke="#000000" stroke-linecap="round" stroke-linejoin="round" stroke-width="6.000000"
	d="
M216.500000,75.500000 
	C221.550095,80.388718 221.992722,85.405121 218.000000,92.500000 
"/>
<path fill="none" opacity="1.000000" stroke="#000000" stroke-linecap="round" stroke-linejoin="round" stroke-width="6.000000"
	d="
M134.499985,81.999977 
	C133.999985,82.499977 133.499985,82.999977 132.663483,83.836472 
	C137.104019,85.584450 136.410965,90.307304 138.500000,93.500000 
"/>
<path fill="none" opacity="1.000000" stroke="#000000" stroke-linecap="round" stroke-linejoin="round" stroke-width="3.000000"
	d="
M190.500000,116.750000 
	C189.955948,120.172432 187.283875,120.906822 184.500000,121.500000 
"/>
<path fill="none" opacity="1.000000" stroke="#000000" stroke-linecap="round" stroke-linejoin="round" stroke-width="6.000000"
	d="
M98.500000,76.500000 
	C98.500000,81.500000 98.500000,86.500000 98.500000,91.500000 
"/>
<path fill="none" opacity="1.000000" stroke="#000000" stroke-linecap="round" stroke-linejoin="round" stroke-width="6.000000"
	d="
M78.500000,101.500000 
	C78.500000,107.166664 78.500000,112.833336 78.500000,118.500000 
"/>
<path fill="none" opacity="1.000000" stroke="#000000" stroke-linecap="round" stroke-linejoin="round" stroke-width="6.000000"
	d="
M147.500000,101.500000 
	C147.500000,107.166664 147.500000,112.833336 147.500000,118.500000 
"/>
<path fill="none" opacity="1.000000" stroke="#000000" stroke-linecap="round" stroke-linejoin="round" stroke-width="6.000000"
	d="
M131.500000,101.500000 
	C131.500000,107.166664 131.500000,112.833336 131.500000,118.500000 
"/>
<path fill="none" opacity="1.000000" stroke="#000000" stroke-linecap="round" stroke-linejoin="round" stroke-width="6.000000"
	d="
M123.500000,76.500000 
	C123.500000,81.500000 123.500000,86.500000 123.500000,91.500000 
"/>
<path fill="none" opacity="1.000000" stroke="#000000" stroke-linecap="round" stroke-linejoin="round" stroke-width="6.000000"
	d="
M360.500000,76.500000 
	C360.500000,81.500000 360.500000,86.500000 360.500000,91.500000 
"/>
<path fill="none" opacity="1.000000" stroke="#000000" stroke-linecap="round" stroke-linejoin="round" stroke-width="3.000000"
	d="
M369.500000,84.000000 
	C371.397186,85.508354 374.437225,86.473412 373.879517,89.477638 
	C373.412720,91.992134 371.342651,93.554466 368.500000,93.500000 
"/>
<path fill="none" opacity="1.000000" stroke="#000000" stroke-linecap="round" stroke-linejoin="round" stroke-width="5.000000"
	d="
M370.500000,100.500000 
	C370.727661,105.829544 373.409393,110.294716 375.384766,115.047890 
	C376.284027,117.211792 377.574036,118.259300 379.500000,119.000000 
"/>
<path fill="none" opacity="1.000000" stroke="#000000" stroke-linecap="round" stroke-linejoin="round" stroke-width="2.000000"
	d="
M249.000000,33.500000 
	C251.282440,34.462475 250.741592,37.965900 253.500000,38.500000 
"/>
<path fill="none" opacity="1.000000" stroke="#000000" stroke-linecap="round" stroke-linejoin="round" stroke-width="2.000000"
	d="
M371.500000,76.500000 
	C374.003693,80.588982 373.864227,80.833076 367.500000,83.500000 
"/>
<path fill="none" opacity="1.000000" stroke="#000000" stroke-linecap="round" stroke-linejoin="round" stroke-width="2.000000"
	d="
M248.500000,30.500000 
	C248.966949,34.500175 246.235184,36.501156 243.500000,38.500000 
"/>
<path fill="none" opacity="1.000000" stroke="#000000" stroke-linecap="round" stroke-linejoin="round" stroke-width="3.000000"
	d="
M248.500000,64.500000 
	C248.500000,63.000000 248.500000,61.500000 248.500000,59.500000 
	C246.866623,59.500000 245.183319,59.500000 243.500000,59.500000 
"/>
<path fill="none" opacity="1.000000" stroke="#000000" stroke-linecap="round" stroke-linejoin="round" stroke-width="2.000000"
	d="
M247.500000,30.000000 
	C245.500000,29.833334 243.500000,29.666666 241.500000,29.500000 
"/>
</svg>